HIERARCHY
ROOT Hips
{
  OFFSET 267.745 86.9975 -272.335
  CHANNELS 6 Xposition Yposition Zposition Zrotation Xrotation Yrotation
  JOINT LeftUpLeg
  {
    OFFSET 8.64259 1.95398 -2.38835
    CHANNELS 3 Zrotation Xrotation Yrotation
    JOINT LeftLeg
    {
      OFFSET 43.7702 0 0
      CHANNELS 3 Zrotation Xrotation Yrotation
      JOINT LeftFoot
      {
        OFFSET 40.6238 0 0
        CHANNELS 3 Zrotation Xrotation Yrotation
        JOINT LeftToeBase
        {
          OFFSET 12.7242 0 0
          CHANNELS 3 Zrotation Xrotation Yrotation
          End Site
          {
            OFFSET 0 0 0
          }
        }
      }
    }
  }
  JOINT RightUpLeg
  {
    OFFSET -8.2249 1.95398 -2.59336
    CHANNELS 3 Zrotation Xrotation Yrotation
    JOINT RightLeg
    {
      OFFSET 43.5653 0 0
      CHANNELS 3 Zrotation Xrotation Yrotation
      JOINT RightFoot
      {
        OFFSET 40.6238 0 0
        CHANNELS 3 Zrotation Xrotation Yrotation
        JOINT RightToeBase
        {
          OFFSET 12.7242 0 0
          CHANNELS 3 Zrotation Xrotation Yrotation
          End Site
          {
            OFFSET 0 0 0
          }
        }
      }
    }
  }
  JOINT Spine
  {
    OFFSET 0.165834 0.87714 6.61349
    CHANNELS 3 Zrotation Xrotation Yrotation
    JOINT Spine1
    {
      OFFSET 7.38963 1.71661e-005 0
      CHANNELS 3 Zrotation Xrotation Yrotation
      JOINT Spine2
      {
        OFFSET 11.9445 1.14441e-005 0
        CHANNELS 3 Zrotation Xrotation Yrotation
        JOINT Spine3
        {
          OFFSET 14.7254 4.19617e-005 0
          CHANNELS 3 Zrotation Xrotation Yrotation
          JOINT Spine4
          {
            OFFSET 10.9679 0 0
            CHANNELS 3 Zrotation Xrotation Yrotation
            JOINT RightShoulder
            {
              OFFSET 2.46616 -1.6653 3.69651
              CHANNELS 3 Zrotation Xrotation Yrotation
              JOINT RightArm
              {
                OFFSET 13.0012 0 0
                CHANNELS 3 Zrotation Xrotation Yrotation
                JOINT RightForeArm
                {
                  OFFSET 28.7848 1.52588e-005 0
                  CHANNELS 3 Zrotation Xrotation Yrotation
                  JOINT RightHand
                  {
                    OFFSET 26.5688 1.52588e-005 0
                    CHANNELS 3 Zrotation Xrotation Yrotation
                    End Site
                    {
                      OFFSET 0 0 0
                    }
                  }
                }
              }
            }
            JOINT LeftShoulder
            {
              OFFSET 2.38034 -1.29275 -3.7523
              CHANNELS 3 Zrotation Xrotation Yrotation
              JOINT LeftArm
              {
                OFFSET 16.3182 6.10352e-005 0
                CHANNELS 3 Zrotation Xrotation Yrotation
                JOINT LeftForeArm
                {
                  OFFSET 27.0901 0 0
                  CHANNELS 3 Zrotation Xrotation Yrotation
                  JOINT LeftHand
                  {
                    OFFSET 24.5451 1.52588e-005 0
                    CHANNELS 3 Zrotation Xrotation Yrotation
                    End Site
                    {
                      OFFSET 0 0 0
                    }
                  }
                }
              }
            }
            JOINT Neck
            {
              OFFSET 5.0226 -0.0266342 0
              CHANNELS 3 Zrotation Xrotation Yrotation
              JOINT Head
              {
                OFFSET 6.69364 2.86102e-005 0
                CHANNELS 3 Zrotation Xrotation Yrotation
                End Site
                {
                  OFFSET 0 0 0
                }
              }
            }
          }
        }
      }
    }
  }
}
MOTION
Frames:	18
Frame Time:	0.0416667
83.7426 93.3941 6.18387 -106.649 -46.6327 -103.549 -176.665 11.2127 86.5252 -34.586 19.7587 1.65835 61.6107 2.8789 16.0903 41.3365 -1.37935 -3.85997 170.381 17.3356 84.7311 -72.8614 -11.4569 -1.03036 46.6963 10.6307 16.8811 28.9608 -0.273698 2.59853 -0.242117 8.41153 -89.6058 10.0512 -0.302964 0.807669 -1.61994 -0.267114 0.820216 -24.1539 -0.5317 0.67929 -4.14121 -0.531717 0.679275 101.242 -51.1853 -83.5881 33.7706 -8.23873 -6.32699 -3.74428 -25.3701 -16.3549 -8.20421 -0.477406 1.68923 -81.4702 -53.7955 91.5981 -25.8844 -4.52821 -18.7989 3.00577 46.2994 -5.20349 -6.19924 -0.15974 -2.29834 -5.9454 -4.06121 -4.13351 -21.6379 -3.87464 1.08825 
79.2473 94.6397 10.8369 -105.037 -44.3115 -101.721 -175.489 5.35033 87.2637 -31.0859 16.776 1.44795 64.0484 4.27279 14.6277 41.2735 -1.38185 -2.11207 169.63 22.0822 85.9185 -60.0138 -9.65335 0.956862 54.5136 7.02363 17.4612 33.5314 -1.28411 2.79588 -0.606305 8.29788 -89.617 10.2817 -1.03283 0.849685 -1.38916 -0.994429 0.894304 -23.9267 -1.24044 0.49997 -3.91405 -1.24043 0.499968 101.311 -51.3386 -83.48 33.543 -6.78148 -2.98811 -3.79823 -23.8978 -16.8647 -8.63892 -0.467008 1.19539 -81.3145 -51.716 91.6989 -25.5049 -3.49925 -27.5287 5.13232 41.2637 -8.34409 -3.26192 -0.101968 -3.00048 -7.04215 -6.06153 -3.81684 -20.2726 -5.32623 -3.18966 
74.756 95.5673 14.896 -102.761 -40.5785 -100.071 -174.57 -0.204705 86.7884 -24.7988 13.5805 0.766843 63.6285 5.08135 14.8541 43.3023 -1.63546 0.575757 167.628 19.9826 86.1739 -36.3382 5.14687 4.8481 57.4615 5.60121 15.4708 46.5519 -4.1048 4.4923 -0.781893 8.10101 -89.6163 10.6772 -1.38034 0.888308 -0.993302 -1.3399 0.948196 -23.5337 -1.58349 0.432317 -3.521 -1.58348 0.432313 101.454 -51.3736 -83.2594 33.1429 -4.62004 -1.78136 -3.59606 -23.5994 -16.1228 -8.38454 -0.498724 1.876 -81.594 -50.1322 91.1778 -22.8972 -2.20934 -32.3126 8.35035 33.3255 -16.459 -1.92115 -0.0877682 -3.68698 -7.42122 -8.03101 -3.48629 -19.2231 -6.9754 -6.21945 
69.8365 95.947 18.2496 -99.4376 -34.0668 -98.8669 -174.321 -5.42623 86.098 -20.2062 10.3636 -0.181336 60.5083 4.86117 14.7183 51.0814 -2.07365 4.92918 168.587 17.4785 86.9819 -24.1397 26.7787 7.14295 57.317 8.42108 11.7696 36.7485 -1.86828 -0.141499 -0.621467 7.72444 -89.5822 11.4288 -1.04148 0.936949 -0.242114 -0.999231 0.981871 -22.7793 -1.27491 0.580609 -2.76669 -1.2749 0.580609 101.3 -51.3164 -83.4978 32.6936 -2.57207 -1.21191 -3.63429 -24.3156 -14.9986 -7.47394 -0.392117 0.986343 -80.9381 -49.3883 92.1302 -20.9386 -1.33584 -33.8015 11.511 28.1635 -24.8688 0.285522 -0.0581012 -3.04497 -7.35823 -9.23051 -2.23083 -19.0595 -8.08311 -7.72842 
64.6996 95.127 21.749 -98.4313 -26.2038 -97.8109 -174.418 -3.07651 85.3485 -32.1345 7.19841 -0.111706 56.1497 1.9013 8.18345 61.2457 -2.22356 8.32345 169.842 18.722 88.446 -31.0137 22.0705 6.15169 62.8451 7.33033 6.88983 31.9873 -0.777918 -0.293372 -0.26037 7.63436 -89.7711 11.6059 -0.410664 0.498776 -0.0651012 -0.388341 0.51636 -22.6003 -0.541588 0.352293 -2.58769 -0.541591 0.352293 101.368 -51.4242 -83.3918 31.973 -2.40094 -2.6472 -3.17754 -24.5661 -14.0424 -7.25312 -0.431891 1.87864 -80.8243 -50.3511 92.3571 -18.7877 -0.00983401 -31.738 14.78 27.514 -31.6893 0.212711 -0.101887 -4.87333 -5.97153 -9.07831 -0.882516 -18.6865 -7.98197 -8.11767 
60.0261 94.0922 23.9248 -98.4405 -20.1529 -95.0512 -171.024 9.28915 88.0427 -56.1156 5.74916 0.0966805 47.6988 -4.10703 1.86271 57.2441 -2.8755 2.56279 171.123 18.7221 90.935 -38.4003 18.7543 5.58666 66.6151 7.75701 9.60261 29.4022 0.0342735 -2.2474 -0.12089 7.63985 -90.2378 11.5932 -0.351776 -0.439565 -0.0777644 -0.370795 -0.423668 -22.6125 -0.203413 -0.524968 -2.59982 -0.203415 -0.524973 101.466 -51.0371 -83.2455 30.5268 -3.83595 -4.47158 -4.18334 -23.5302 -16.648 -7.92763 -0.432961 1.25876 -81.2324 -49.0909 91.6625 -22.7641 3.21244 -26.8772 15.5172 27.9543 -33.2512 1.31046 -0.0923181 -4.46167 -7.24972 -9.80498 -3.43954 -17.1635 -8.69571 -7.68345 
55.6388 94.1731 25.8167 -99.7834 -10.8828 -95.3339 -175.452 16.1032 89.4751 -63.0529 2.96642 2.15359 49.1036 -1.68191 8.41558 51.4536 -2.07224 5.3979 172.13 14.7589 92.0132 -39.3247 12.0693 4.56735 69.2057 5.45615 8.16572 26.3468 0.818198 -1.95593 -0.0599837 7.85748 -90.4072 11.1569 -0.308342 -0.778838 -0.514221 -0.342317 -0.764524 -23.0474 -0.0600436 -0.835506 -3.03472 -0.0600132 -0.835497 101.76 -51.7096 -82.7879 28.625 -6.93739 -8.40458 -4.96206 -20.7812 -20.6724 -9.57022 -0.466949 0.495665 -81.1724 -50.6709 91.8471 -23.7962 6.14214 -20.5112 16.0163 31.3049 -33.5637 -1.91588 -0.0946694 -5.31397 -8.44973 -11.414 -4.75475 -17.0257 -9.90041 -11.1243 
51.2338 94.9399 27.2174 -98.0536 2.52656 -90.6069 178.837 18.203 88.8295 -52.6003 3.81225 3.86995 52.3479 1.10448 10.7095 53.9818 -2.07952 6.88684 174.35 12.3023 92.2666 -37.2875 4.35675 2.10722 71.466 2.74874 9.20475 24.3921 1.26748 -1.29568 0.162076 7.75919 -90.3717 11.3554 0.149336 -0.755155 -0.315801 0.115946 -0.760991 -22.8496 0.369377 -0.675364 -2.83692 0.369365 -0.675371 101.569 -50.9953 -83.0876 29.1852 -10.9568 -10.6332 -6.93423 -18.4098 -26.533 -9.99062 -0.403915 -0.49265 -80.4097 -53.167 93.114 -27.6499 3.43175 -11.6094 16.9604 37.4705 -30.6511 -7.24326 -0.0279411 -5.78474 -9.52696 -13.574 -3.85819 -17.1101 -11.7801 -14.6863 
47.0847 95.8428 28.1589 -95.0743 17.2035 -91.6475 173.657 15.9575 90.46 -31.4838 11.0924 6.23295 54.1533 2.72189 9.68093 57.108 -1.78463 10.4214 176.428 11.3485 91.867 -34.2597 -4.50437 -0.0680359 71.721 2.08889 12.7804 23.8822 1.45986 -1.7272 0.292124 7.56073 -90.3853 11.7532 0.400072 -0.810354 0.082095 0.364027 -0.827178 -22.4521 0.625136 -0.652654 -2.43949 0.625114 -0.652662 101.496 -50.2133 -83.2101 28.9899 -16.6657 -12.9868 -8.99338 -18.7814 -30.0049 -9.88734 -0.333512 -1.31609 -79.7399 -55.1862 94.1611 -32.3304 -3.3422 -4.40743 13.502 42.3784 -21.4292 -10.6733 -0.0302592 -5.20036 -7.05931 -14.3087 -1.62029 -18.3878 -12.1135 -17.0802 
42.9597 96.2172 28.1267 -92.1018 29.6579 -90.7992 172.784 12.132 93.7382 -11.8751 28.9303 6.95207 56.0973 3.77252 7.53222 55.5675 -1.63291 11.4368 177.891 10.3648 91.9122 -31.1539 -11.1554 -1.29063 72.4892 1.12352 16.2048 21.0027 2.18603 -1.49892 0.34569 7.4683 -90.4417 11.9386 0.479317 -0.932628 0.267435 0.437784 -0.952823 -22.2666 0.737423 -0.745476 -2.25392 0.737426 -0.745474 101.642 -50.856 -82.9762 28.0248 -18.5577 -14.1511 -8.99435 -17.8893 -31.1056 -11.0101 -0.460301 -0.334442 -80.193 -55.3905 93.5199 -35.2649 -6.9134 -4.30843 6.15951 54.0408 -7.94188 -13.618 0.0888969 -6.23139 -4.64357 -14.1123 -3.66354 -18.3685 -12.0314 -13.9629 
38.4855 95.9821 27.3664 -91.2726 39.7258 -90.3204 176.253 11.6999 92.6187 -12.0015 32.4196 9.55917 59.7271 1.95921 1.50772 53.5229 -1.77892 9.70168 179.873 9.02378 92.0379 -31.9599 -16.4029 -3.87969 73.4019 -0.26942 16.638 19.7736 2.13297 0.821779 0.306801 7.62573 -90.3439 11.6231 0.449162 -0.732163 -0.0480391 0.416507 -0.751223 -22.5827 0.648442 -0.563323 -2.57001 0.648438 -0.563327 101.363 -50.7831 -83.4073 28.7464 -16.177 -13.5894 -6.4833 -16.4096 -28.3584 -11.3474 -0.511524 -0.0606232 -80.776 -54.8435 92.6598 -35.3206 -8.10873 -7.09907 0.0218145 60.0023 0.833612 -7.51458 -0.066616 -4.35154 -4.80276 -12.7154 -5.00077 -16.9507 -10.8735 -12.1801 
33.7278 95.0142 26.11 -92.3582 45.2897 -89.5355 174.716 11.4736 91.9398 -18.7808 30.8066 7.81124 56.9436 2.09857 6.82807 51.4257 -1.94423 7.11428 -177.611 7.73848 91.9766 -37.0789 -17.3132 -6.98592 75.5345 -2.00682 16.3267 25.6605 0.691247 0.495881 0.0435024 7.78335 -90.1488 11.3073 0.0170975 -0.298079 -0.363654 0.00396883 -0.298558 -22.8986 0.105913 -0.279157 -2.8859 0.105896 -0.279167 101.787 -51.4157 -82.7493 28.8984 -12.31 -9.87379 -4.6877 -15.1068 -26.3292 -12.8066 -0.725353 1.45074 -81.0366 -52.9826 92.1843 -32.1583 -5.91914 -7.91503 5.29874 52.4532 -7.06441 -2.16416 -0.0930666 -3.1239 -5.99261 -11.3555 -5.73656 -16.3902 -9.75979 -10.3704 
29.5554 94.3455 24.3679 -93.3873 51.0066 -89.0802 176.817 11.0601 90.1316 -25.5978 27.5765 7.39067 60.6281 4.29872 10.5267 48.8024 -1.9316 5.11028 -176.793 10.2073 89.8294 -45.1064 -19.4227 -6.98651 68.0593 1.60772 17.6994 35.2574 -1.73645 4.44476 -0.0957285 7.89373 -89.9226 11.0865 -0.154574 0.169084 -0.584431 -0.146978 0.175713 -23.1196 -0.198242 0.114808 -3.10696 -0.198233 0.114814 101.925 -51.4819 -82.5371 29.8706 -8.3715 -7.00002 -1.48905 -13.6472 -20.9494 -16.3838 -0.928649 1.41226 -81.1943 -52.1136 91.9023 -27.0149 -6.39413 -12.3144 6.76666 43.6742 -9.97892 -1.00158 -0.0670834 -2.41043 -5.92911 -9.75171 -5.00102 -16.36 -8.38647 -8.74767 
26.4523 93.5013 22.2609 -96.5467 55.9594 -84.7531 -179.606 9.76285 90.8241 -32.568 25.2593 7.52405 66.1961 6.54857 11.4352 49.708 -2.01049 4.83249 -177.459 15.278 88.7376 -54.4316 -19.9896 -4.97383 54.3538 8.72105 22.7826 40.3044 -2.67459 10.9868 -0.318134 8.02004 -89.9753 10.8343 -0.622066 0.106711 -0.836495 -0.616754 0.13397 -23.3728 -0.625362 -0.0851878 -3.36018 -0.625365 -0.0851945 101.683 -51.5645 -82.9081 30.7957 -5.49834 -5.29056 -0.319384 -17.3223 -14.8512 -15.1822 -1.1136 3.37979 -81.4742 -50.2186 91.3656 -24.7745 -7.33319 -18.5607 5.91167 42.7828 -7.73545 2.03591 -0.0126882 -2.33953 -5.48444 -7.84882 -4.94456 -16.3396 -6.81201 -5.50458 
23.7582 93.5676 19.5012 -99.1503 60.6306 -80.8924 -176.777 5.37412 92.3984 -31.2702 24.0721 6.20065 68.2887 8.49357 13.3828 49.5699 -2.0397 4.26822 177.791 22.3545 87.6946 -61.35 -14.9799 -2.37817 54.792 8.47389 23.3702 42.7808 -3.00745 12.3743 -0.506481 8.04721 -90.1047 10.7789 -1.05693 -0.109767 -0.891573 -1.06073 -0.0631459 -23.4297 -0.975062 -0.422374 -3.41709 -0.975062 -0.422376 101.267 -51.4756 -83.5455 32.4733 -1.52595 -2.11668 -0.695297 -20.7011 -11.9843 -13.0761 -0.941466 3.29294 -81.9136 -51.4802 90.7904 -20.7282 -7.50369 -24.7079 5.12297 40.6932 -7.28664 1.48932 -0.0135177 -2.11803 -2.87221 -6.05701 -4.27132 -17.1468 -5.19758 -3.06635 
21.5419 94.0273 16.1211 -98.4456 64.8341 -79.3321 -174.639 1.75301 94.243 -27.8602 23.3369 5.45176 68.0225 9.02033 14.4398 51.0806 -2.02114 5.82491 171.691 27.0966 88.8288 -53.4235 -9.53888 1.49084 57.012 7.29168 21.9772 40.6834 -2.81385 7.05793 -0.623965 7.9479 -90.3099 10.9756 -1.38554 -0.484117 -0.694667 -1.40552 -0.422664 -23.2337 -1.176 -0.878198 -3.22102 -1.17599 -0.878191 101.471 -51.9039 -83.2282 33.5569 1.02001 0.176091 -1.14395 -23.337 -10.3218 -10.3132 -0.71262 2.95422 -81.5593 -51.0051 91.2888 -20.39 -5.71759 -28.9976 6.88534 35.371 -11.9682 1.63643 -0.0249347 -2.49015 0.309276 -4.64327 -5.51568 -17.7109 -3.77243 -0.412521 
19.9314 94.403 12.0869 -95.8168 68.6058 -80.3969 -173.445 -1.7089 95.3229 -23.6977 21.0965 5.34354 66.7918 8.51531 13.643 53.3727 -2.04765 7.01068 171.088 27.0252 89.8498 -33.0293 -1.60823 4.17983 56.1261 8.10212 21.6532 29.2558 -0.27258 1.80711 -0.689361 8.00221 -90.5516 10.8624 -1.62734 -0.944575 -0.807831 -1.66735 -0.872026 -23.3457 -1.26826 -1.38999 -3.33304 -1.26826 -1.39 101.627 -51.3811 -82.9941 34.8211 2.03927 0.0947199 -1.49734 -23.7746 -10.1421 -9.23056 -0.606472 2.58843 -80.9966 -51.2273 92.146 -20.6687 -2.21436 -33.0155 9.6021 32.233 -19.3763 1.2501 -0.0671687 -3.6311 6.50969 -2.98113 -4.96647 -19.1697 -2.14186 1.34142 
18.7367 94.49 7.01762 -93.3461 70.6119 -83.677 -172.787 -5.83544 94.92 -19.8076 20.2643 4.89367 64.0134 6.99632 11.5219 56.5915 -1.90301 9.41983 176.211 25.7276 87.9942 -15.8057 4.79764 1.74661 55.4479 9.56031 19.9713 23.1892 1.66395 -1.92451 -0.756284 8.01859 -90.5357 10.8295 -1.75316 -0.901903 -0.840514 -1.79115 -0.823863 -23.3797 -1.40108 -1.38714 -3.36707 -1.40107 -1.38714 101.37 -51.0515 -83.394 36.0981 2.21478 0.354848 -2.50016 -24.37 -11.2742 -8.25969 -0.438736 1.07622 -81.2695 -51.3764 91.7465 -20.3756 1.68425 -35.0083 13.7688 33.0501 -27.5039 -1.16644 -0.0875251 -4.09585 8.59647 -2.36923 -5.17137 -17.7195 -1.58623 3.03325 
